<?xml version="1.0" encoding="utf-8"?>
<svg viewBox="187.009 120.018 40 40" xmlns="http://www.w3.org/2000/svg">
  <circle cx="207.009" cy="140.018" r="20" style="fill: rgb(217, 150, 167);"/>
  <path d="M 196.009 130.018 C 195.457 130.018 195.009 130.466 195.009 131.018 C 195.009 131.571 195.457 132.018 196.009 132.018 L 196.009 130.018 Z M 198.231 131.018 L 199.212 130.821 C 199.118 130.354 198.708 130.018 198.231 130.018 L 198.231 131.018 Z M 197.696 133.426 C 197.804 133.968 198.332 134.318 198.873 134.209 C 199.414 134.1 199.765 133.573 199.656 133.032 L 197.696 133.426 Z M 200.454 141.071 C 199.901 141.071 199.454 141.519 199.454 142.071 C 199.454 142.623 199.901 143.071 200.454 143.071 L 200.454 141.071 Z M 211.565 142.071 L 211.565 143.071 C 211.943 143.071 212.289 142.858 212.458 142.52 L 211.565 142.071 Z M 216.009 133.229 L 216.903 133.678 C 217.059 133.368 217.043 132.999 216.86 132.704 C 216.678 132.409 216.356 132.229 216.009 132.229 L 216.009 133.229 Z M 198.676 132.229 C 198.124 132.229 197.676 132.677 197.676 133.229 C 197.676 133.781 198.124 134.229 198.676 134.229 L 198.676 132.229 Z M 199.473 142.268 C 199.582 142.81 200.109 143.16 200.651 143.051 C 201.192 142.942 201.543 142.415 201.434 141.874 L 199.473 142.268 Z M 199.656 133.032 C 199.547 132.49 199.02 132.14 198.479 132.249 C 197.937 132.357 197.587 132.885 197.696 133.426 L 199.656 133.032 Z M 201.159 142.78 C 201.55 142.39 201.552 141.757 201.163 141.366 C 200.773 140.974 200.14 140.973 199.748 141.362 L 201.159 142.78 Z M 197.906 144.605 L 197.201 143.896 L 197.906 144.605 Z M 211.565 147.492 C 212.117 147.492 212.565 147.044 212.565 146.492 C 212.565 145.94 212.117 145.492 211.565 145.492 L 211.565 147.492 Z M 211.565 146.492 L 210.565 146.492 C 210.565 146.758 210.671 147.013 210.86 147.201 L 211.565 146.492 Z M 213.787 148.702 L 213.082 149.411 C 213.269 149.598 213.523 149.702 213.787 149.702 L 213.787 148.702 Z M 202.676 148.702 L 201.811 148.201 C 201.723 148.353 201.676 148.526 201.676 148.702 L 202.676 148.702 Z M 202.676 150.913 L 201.676 150.913 C 201.676 151.089 201.723 151.262 201.811 151.415 L 202.676 150.913 Z M 196.009 132.018 L 198.231 132.018 L 198.231 130.018 L 196.009 130.018 L 196.009 132.018 Z M 197.251 131.216 L 197.696 133.426 L 199.656 133.032 L 199.212 130.821 L 197.251 131.216 Z M 200.454 143.071 L 211.565 143.071 L 211.565 141.071 L 200.454 141.071 L 200.454 143.071 Z M 212.458 142.52 L 216.903 133.678 L 215.116 132.78 L 210.671 141.622 L 212.458 142.52 Z M 216.009 132.229 L 198.676 132.229 L 198.676 134.229 L 216.009 134.229 L 216.009 132.229 Z M 201.434 141.874 L 199.656 133.032 L 197.696 133.426 L 199.473 142.268 L 201.434 141.874 Z M 199.748 141.362 L 197.201 143.896 L 198.611 145.314 L 201.159 142.78 L 199.748 141.362 Z M 197.201 143.896 C 195.86 145.23 196.82 147.492 198.691 147.492 L 198.691 145.492 C 198.651 145.492 198.635 145.482 198.627 145.476 C 198.614 145.467 198.599 145.451 198.588 145.425 C 198.578 145.4 198.577 145.379 198.579 145.366 C 198.581 145.358 198.584 145.341 198.611 145.314 L 197.201 143.896 Z M 198.691 147.492 L 211.565 147.492 L 211.565 145.492 L 198.691 145.492 L 198.691 147.492 Z M 212.565 146.492 C 212.565 145.828 213.107 145.281 213.787 145.281 L 213.787 143.281 C 212.012 143.281 210.565 144.714 210.565 146.492 L 212.565 146.492 Z M 213.787 145.281 C 214.467 145.281 215.009 145.828 215.009 146.492 L 217.009 146.492 C 217.009 144.714 215.562 143.281 213.787 143.281 L 213.787 145.281 Z M 215.009 146.492 C 215.009 147.156 214.467 147.702 213.787 147.702 L 213.787 149.702 C 215.562 149.702 217.009 148.27 217.009 146.492 L 215.009 146.492 Z M 214.492 147.994 L 212.27 145.783 L 210.86 147.201 L 213.082 149.411 L 214.492 147.994 Z M 203.541 149.204 C 203.816 148.73 204.38 148.496 204.918 148.639 L 205.433 146.706 C 204.028 146.332 202.542 146.942 201.811 148.201 L 203.541 149.204 Z M 204.918 148.639 C 205.455 148.782 205.823 149.264 205.823 149.808 L 207.823 149.808 C 207.823 148.351 206.839 147.081 205.433 146.706 L 204.918 148.639 Z M 205.823 149.808 C 205.823 150.352 205.455 150.834 204.918 150.977 L 205.433 152.909 C 206.839 152.534 207.823 151.265 207.823 149.808 L 205.823 149.808 Z M 204.918 150.977 C 204.38 151.12 203.816 150.885 203.541 150.411 L 201.811 151.415 C 202.542 152.674 204.028 153.284 205.433 152.909 L 204.918 150.977 Z M 203.676 150.913 L 203.676 148.702 L 201.676 148.702 L 201.676 150.913 L 203.676 150.913 Z" fill="white"/>
  <circle cx="216.009" cy="133.018" r="6" fill="white"/>
  <path d="M 218.536 132.545 L 216.483 132.545 L 215.536 132.545 L 213.483 132.545 C 213.224 132.545 213.009 132.753 213.009 133.018 C 213.009 133.151 213.06 133.265 213.148 133.353 C 213.237 133.442 213.35 133.492 213.483 133.492 L 215.536 133.492 L 216.483 133.492 L 218.536 133.492 C 218.795 133.492 219.009 133.284 219.009 133.018 C 219.009 132.76 218.801 132.545 218.536 132.545 Z" style="fill: rgb(217, 150, 167); stroke: rgb(217, 150, 167);"/>
</svg>